<svg width="450" height="364" viewBox="0 0 450 364" fill="none" xmlns="http://www.w3.org/2000/svg">
<mask id="path-1-outside-1_5_29" maskUnits="userSpaceOnUse" x="0" y="0.11795" width="450" height="364" fill="black">
<rect fill="white" y="0.11795" width="450" height="364"/>
<path d="M197.317 19.8806C194.071 22.5566 191.313 25.5833 189.083 28.93C184.879 35.0993 183.897 41.4593 186.373 46.3953C187.955 49.5473 190.737 51.5086 193.81 51.6366C197.402 51.7286 200.647 49.5673 203.202 45.3966C206.075 40.0259 205.979 32.4233 202.914 26.5646C201.507 23.9153 199.583 21.7273 197.317 19.8806ZM307.351 39.7553C301.507 42.71 296.303 46.7046 292.139 51.6033C287.999 56.3019 286.285 63.2646 287.949 68.5606C288.758 71.1353 290.767 74.4593 295.741 75.6726C299.663 76.6619 304.187 75.9126 307.87 73.6726C311.183 71.6539 313.439 68.6726 314.226 65.2806C316.293 56.3393 311.746 46.8393 307.351 39.7553ZM68.3113 65.0873C65.706 72.5379 69.322 77.9793 71.73 80.5753C76.494 85.7073 84.0433 88.2833 89.67 86.67C93.4207 85.606 95.854 82.7699 96.7007 78.4713C97.7913 72.9206 96.1953 68.618 92.0753 66.0326C87.126 62.9193 78.5167 62.3059 68.3113 65.0873ZM275.25 111.305C275.477 111.498 275.707 111.694 275.934 111.887C292.085 125.661 310.414 141.273 325.207 136.675C334.47 133.93 341.026 126.433 341.545 118.013C342.066 109.533 336.57 102.141 326.467 97.7353C313.551 92.3753 296.306 96.9353 275.25 111.305ZM390.333 119.995C387.171 119.995 384.001 120.371 380.903 121.154C371.17 123.335 363.946 131.766 364.058 140.765C363.983 148.133 367.738 153.71 374.358 156.102C382.462 159.03 392.193 156.438 397.491 149.935C403.214 142.913 406.186 133.347 407.307 123.722C401.991 121.286 396.174 119.995 390.333 119.995ZM98.4927 198.263C114.149 201.462 134.79 192.494 144.899 184.958C150.233 181.178 153.557 175.238 152.841 170.81C152.361 167.818 150.073 165.677 146.042 164.447C129.426 160.059 114.417 174.713 110.219 179.307C105.157 185.193 101.281 191.637 98.4927 198.263ZM149.707 212.494C135.379 212.494 124.11 214.045 119.706 219.459C117.53 222.129 117.107 225.738 118.405 230.481C119.79 235.539 123.083 238.815 128.199 240.211C142.307 244.054 167.891 233.743 194.782 214.682C190.134 214.431 185.489 214.141 180.909 213.855C169.903 213.167 159.139 212.494 149.707 212.494ZM21.838 188.293C17.7447 199.839 16.5993 212.202 20.13 225.077C24.514 241.075 34.306 250.942 46.326 251.466C54.4607 251.785 61.7767 247.577 64.158 241.143C66.858 233.855 62.7993 225.27 53.0247 217.589C39.2753 206.787 29.2033 196.983 21.838 188.293ZM309.581 172.91C329.066 172.91 332.159 182.641 335.435 192.945C338.542 202.715 341.758 212.819 358.99 218.263C392.681 228.905 395.73 243.891 397.955 254.834C398.399 257.013 398.806 259.009 399.395 260.805C410.247 249.197 417.319 238.47 402.231 212.107C386.714 184.999 357.922 166.646 323.231 161.757C288.145 156.814 253.687 166.934 231.133 188.841C222.497 197.23 213.61 204.894 204.781 211.67C208.527 211.809 212.251 211.901 215.921 211.921C216.439 211.925 216.958 211.925 217.469 211.925C266.465 211.925 274.646 198.839 281.237 188.302C286.159 180.429 290.814 172.989 309.337 172.91H309.581ZM366.813 362.118C366.061 362.118 365.369 361.627 365.149 360.871C342.653 284.046 307.01 270.314 285.711 262.109C281.195 260.37 277.293 258.866 274.257 257.043C264.319 251.081 263.503 246.127 264.57 243.023C266.878 236.285 280.23 233.005 297.031 235.051C319.23 237.749 335.761 246.655 347.833 253.157C355.646 257.362 361.815 260.673 365.017 259.594C365.663 259.371 366.623 258.857 367.477 256.938C368.086 255.566 367.917 254.025 366.955 252.226C361.057 241.19 330.029 227.709 312.901 224.758C289.629 220.747 250.13 223.641 215.375 244.991L213.234 246.31C190.541 260.319 130.25 297.538 99.018 257.595C87.1567 242.43 87.0927 220.066 94.0687 200.713C90.4433 199.473 87.0927 197.515 84.1847 194.669C76.65 187.286 74.6887 177.302 78.506 165.795C86.1913 142.649 115.657 119.267 141.569 115.763C163.653 112.765 180.902 116.933 196.121 120.598C219.197 126.151 239.217 130.973 269.53 110.999C264.645 106.873 260.034 103.133 255.914 100.494C215.453 74.574 157.066 78.1966 99.726 110.179C87.5793 116.959 39.3033 145.837 23.25 184.619C30.538 193.449 40.794 203.569 55.166 214.858C66.2073 223.535 70.67 233.554 67.414 242.349C64.51 250.179 55.698 255.359 46.174 254.933C32.574 254.337 21.5873 243.518 16.782 225.991C12.846 211.619 14.4073 197.901 19.3033 185.215C6.49668 169.19 3.08467 157.261 2.414 150.251C-1.706 107.039 25.9273 86.334 40.774 75.2113C49.3447 68.7913 57.8793 64.5726 65.686 62.2046C87.1367 6.66729 153.97 0.717942 178.489 7.70728C184.875 9.51928 191.693 11.7286 197.273 15.5166C205.502 9.4526 216.266 5.28196 229.127 3.24863C262.914 -2.08737 292.634 9.88196 308.598 35.27C308.611 35.29 308.622 35.306 308.635 35.3233C319.338 30.638 331.746 29.0833 343.855 31.3526C377.025 37.5393 398.21 57.838 408.611 93.4086C410.729 100.646 411.867 111.051 410.953 121.655C415.191 123.891 419.083 126.826 422.394 130.386C457.529 168.191 451.494 229.955 433.89 258.199C426.321 270.349 416.909 275.786 408.053 273.11C403.293 271.673 400.385 269.465 398.494 266.791C383.943 282.017 367.967 299.651 389.451 353.153C389.807 354.045 389.377 355.054 388.49 355.41C387.598 355.759 386.593 355.338 386.233 354.447C363.649 298.205 381.879 279.143 396.53 263.826C396.601 263.751 396.671 263.677 396.743 263.603C395.689 261.093 395.13 258.338 394.558 255.526C392.389 244.863 389.689 231.595 357.946 221.57C338.997 215.587 335.189 203.613 332.129 193.994C329.002 184.159 326.525 176.379 309.581 176.379H309.35C292.739 176.451 288.961 182.491 284.177 190.142C277.133 201.405 268.382 215.394 217.466 215.394C216.947 215.394 216.429 215.394 215.901 215.39C210.805 215.363 205.614 215.201 200.399 214.963C171.229 236.43 143.189 247.886 127.285 243.559C120.993 241.841 116.765 237.633 115.057 231.395C113.465 225.575 114.126 220.822 117.015 217.267C125.445 206.91 151.246 208.522 181.125 210.393C187.109 210.766 193.201 211.149 199.265 211.437C209.145 204.115 219.126 195.669 228.714 186.354C252.031 163.705 287.562 153.219 323.717 158.321C359.474 163.363 389.187 182.339 405.241 210.386C421.991 239.649 412.447 252.07 400.947 264.215C402.475 266.645 404.871 268.526 409.055 269.79C418.945 272.765 427.019 262.658 430.946 256.362C447.974 229.041 453.826 169.302 419.853 132.751C417.126 129.817 413.975 127.347 410.542 125.386C409.238 135.205 406.067 144.905 400.182 152.125C393.982 159.738 382.638 162.79 373.175 159.365C365.085 156.441 360.497 149.662 360.589 140.767C360.457 130.031 368.662 120.345 380.101 117.777C389.258 115.469 399.017 116.407 407.642 120.083C408.313 110.421 407.222 101.015 405.285 94.3846C395.282 60.1886 374.981 40.6873 343.218 34.7606C331.979 32.6633 320.487 34.0366 310.519 38.282C315.174 45.8633 319.918 56.066 317.607 66.0633C316.607 70.374 313.789 74.1273 309.673 76.634C305.21 79.3553 299.685 80.2526 294.903 79.0366C289.811 77.7966 286.159 74.4459 284.638 69.6046C282.629 63.2073 284.634 54.8726 289.517 49.3326C293.894 44.1793 299.353 39.962 305.474 36.8206C290.205 12.8406 261.907 1.5713 229.67 6.67664C217.794 8.5513 207.83 12.302 200.153 17.7193C202.47 19.718 204.466 22.0926 205.983 24.9486C209.619 31.8979 209.707 40.5953 206.21 47.1206C201.782 54.3513 196.449 55.2353 193.665 55.1033C189.314 54.9206 185.427 52.2473 183.273 47.9513C180.214 41.8593 181.281 34.2193 186.207 26.9926C188.461 23.6073 191.201 20.538 194.403 17.7966C189.371 14.6286 183.273 12.6739 177.541 11.0446C154.265 4.41795 91.4727 9.8553 69.8767 61.094C80.0247 58.7993 88.6033 59.7513 93.922 63.0953C99.282 66.4633 101.478 72.162 100.102 79.142C99.0047 84.7246 95.634 88.5846 90.6193 90.0113C83.782 91.942 74.786 88.9673 69.19 82.9366C64.7847 78.1899 63.094 72.2539 64.3713 66.3113C57.5647 68.6659 50.2087 72.478 42.854 77.99C28.5527 88.7033 1.93266 108.649 5.87 149.919C6.47933 156.313 9.54601 167.053 20.8113 181.574C38.0593 142.563 85.8353 113.961 98.0393 107.151C156.501 74.53 216.219 70.9526 257.783 97.5726C262.29 100.459 267.257 104.529 272.511 108.977C294.938 93.4833 313.545 88.6153 327.826 94.5433C339.203 99.5046 345.617 108.354 345.007 118.227C344.401 128.097 336.849 136.845 326.213 139.995C309.587 145.155 290.506 128.875 273.685 114.527C273.213 114.127 272.746 113.731 272.282 113.334C240.254 134.801 219.39 129.766 195.311 123.97C179.647 120.195 163.446 116.299 142.037 119.199C117.266 122.55 89.118 144.834 81.7993 166.89C79.4487 173.974 78.374 184.115 86.6113 192.189C89.1247 194.651 92.086 196.349 95.3313 197.426C98.446 189.823 102.643 182.797 107.623 177.003C119.757 163.735 134.454 157.799 146.99 161.11C153.783 163.183 155.779 167.229 156.266 170.258C157.195 176.014 153.359 183.214 146.939 187.763C137.213 195.011 114.762 205.575 97.1847 201.594C89.7953 221.902 92.2727 243.342 101.749 255.461C131.059 292.937 187.366 258.199 211.414 243.359L213.559 242.038C249.145 220.178 289.631 217.234 313.491 221.337C331.207 224.393 363.462 238.331 370.014 250.593C371.495 253.357 371.705 255.966 370.647 258.347C369.607 260.686 368.09 262.21 366.138 262.878C361.507 264.446 355.411 261.181 346.186 256.21C334.362 249.841 318.159 241.117 296.611 238.494C280.701 236.569 269.299 239.927 267.85 244.149C266.945 246.787 269.93 250.403 276.039 254.069C278.821 255.735 282.591 257.189 286.959 258.873C308.853 267.309 345.498 281.427 368.477 359.895C368.747 360.814 368.218 361.779 367.301 362.047C367.138 362.094 366.971 362.118 366.813 362.118Z"/>
</mask>
<path d="M197.317 19.8806C194.071 22.5566 191.313 25.5833 189.083 28.93C184.879 35.0993 183.897 41.4593 186.373 46.3953C187.955 49.5473 190.737 51.5086 193.81 51.6366C197.402 51.7286 200.647 49.5673 203.202 45.3966C206.075 40.0259 205.979 32.4233 202.914 26.5646C201.507 23.9153 199.583 21.7273 197.317 19.8806ZM307.351 39.7553C301.507 42.71 296.303 46.7046 292.139 51.6033C287.999 56.3019 286.285 63.2646 287.949 68.5606C288.758 71.1353 290.767 74.4593 295.741 75.6726C299.663 76.6619 304.187 75.9126 307.87 73.6726C311.183 71.6539 313.439 68.6726 314.226 65.2806C316.293 56.3393 311.746 46.8393 307.351 39.7553ZM68.3113 65.0873C65.706 72.5379 69.322 77.9793 71.73 80.5753C76.494 85.7073 84.0433 88.2833 89.67 86.67C93.4207 85.606 95.854 82.7699 96.7007 78.4713C97.7913 72.9206 96.1953 68.618 92.0753 66.0326C87.126 62.9193 78.5167 62.3059 68.3113 65.0873ZM275.25 111.305C275.477 111.498 275.707 111.694 275.934 111.887C292.085 125.661 310.414 141.273 325.207 136.675C334.47 133.93 341.026 126.433 341.545 118.013C342.066 109.533 336.57 102.141 326.467 97.7353C313.551 92.3753 296.306 96.9353 275.25 111.305ZM390.333 119.995C387.171 119.995 384.001 120.371 380.903 121.154C371.17 123.335 363.946 131.766 364.058 140.765C363.983 148.133 367.738 153.71 374.358 156.102C382.462 159.03 392.193 156.438 397.491 149.935C403.214 142.913 406.186 133.347 407.307 123.722C401.991 121.286 396.174 119.995 390.333 119.995ZM98.4927 198.263C114.149 201.462 134.79 192.494 144.899 184.958C150.233 181.178 153.557 175.238 152.841 170.81C152.361 167.818 150.073 165.677 146.042 164.447C129.426 160.059 114.417 174.713 110.219 179.307C105.157 185.193 101.281 191.637 98.4927 198.263ZM149.707 212.494C135.379 212.494 124.11 214.045 119.706 219.459C117.53 222.129 117.107 225.738 118.405 230.481C119.79 235.539 123.083 238.815 128.199 240.211C142.307 244.054 167.891 233.743 194.782 214.682C190.134 214.431 185.489 214.141 180.909 213.855C169.903 213.167 159.139 212.494 149.707 212.494ZM21.838 188.293C17.7447 199.839 16.5993 212.202 20.13 225.077C24.514 241.075 34.306 250.942 46.326 251.466C54.4607 251.785 61.7767 247.577 64.158 241.143C66.858 233.855 62.7993 225.27 53.0247 217.589C39.2753 206.787 29.2033 196.983 21.838 188.293ZM309.581 172.91C329.066 172.91 332.159 182.641 335.435 192.945C338.542 202.715 341.758 212.819 358.99 218.263C392.681 228.905 395.73 243.891 397.955 254.834C398.399 257.013 398.806 259.009 399.395 260.805C410.247 249.197 417.319 238.47 402.231 212.107C386.714 184.999 357.922 166.646 323.231 161.757C288.145 156.814 253.687 166.934 231.133 188.841C222.497 197.23 213.61 204.894 204.781 211.67C208.527 211.809 212.251 211.901 215.921 211.921C216.439 211.925 216.958 211.925 217.469 211.925C266.465 211.925 274.646 198.839 281.237 188.302C286.159 180.429 290.814 172.989 309.337 172.91H309.581ZM366.813 362.118C366.061 362.118 365.369 361.627 365.149 360.871C342.653 284.046 307.01 270.314 285.711 262.109C281.195 260.37 277.293 258.866 274.257 257.043C264.319 251.081 263.503 246.127 264.57 243.023C266.878 236.285 280.23 233.005 297.031 235.051C319.23 237.749 335.761 246.655 347.833 253.157C355.646 257.362 361.815 260.673 365.017 259.594C365.663 259.371 366.623 258.857 367.477 256.938C368.086 255.566 367.917 254.025 366.955 252.226C361.057 241.19 330.029 227.709 312.901 224.758C289.629 220.747 250.13 223.641 215.375 244.991L213.234 246.31C190.541 260.319 130.25 297.538 99.018 257.595C87.1567 242.43 87.0927 220.066 94.0687 200.713C90.4433 199.473 87.0927 197.515 84.1847 194.669C76.65 187.286 74.6887 177.302 78.506 165.795C86.1913 142.649 115.657 119.267 141.569 115.763C163.653 112.765 180.902 116.933 196.121 120.598C219.197 126.151 239.217 130.973 269.53 110.999C264.645 106.873 260.034 103.133 255.914 100.494C215.453 74.574 157.066 78.1966 99.726 110.179C87.5793 116.959 39.3033 145.837 23.25 184.619C30.538 193.449 40.794 203.569 55.166 214.858C66.2073 223.535 70.67 233.554 67.414 242.349C64.51 250.179 55.698 255.359 46.174 254.933C32.574 254.337 21.5873 243.518 16.782 225.991C12.846 211.619 14.4073 197.901 19.3033 185.215C6.49668 169.19 3.08467 157.261 2.414 150.251C-1.706 107.039 25.9273 86.334 40.774 75.2113C49.3447 68.7913 57.8793 64.5726 65.686 62.2046C87.1367 6.66729 153.97 0.717942 178.489 7.70728C184.875 9.51928 191.693 11.7286 197.273 15.5166C205.502 9.4526 216.266 5.28196 229.127 3.24863C262.914 -2.08737 292.634 9.88196 308.598 35.27C308.611 35.29 308.622 35.306 308.635 35.3233C319.338 30.638 331.746 29.0833 343.855 31.3526C377.025 37.5393 398.21 57.838 408.611 93.4086C410.729 100.646 411.867 111.051 410.953 121.655C415.191 123.891 419.083 126.826 422.394 130.386C457.529 168.191 451.494 229.955 433.89 258.199C426.321 270.349 416.909 275.786 408.053 273.11C403.293 271.673 400.385 269.465 398.494 266.791C383.943 282.017 367.967 299.651 389.451 353.153C389.807 354.045 389.377 355.054 388.49 355.41C387.598 355.759 386.593 355.338 386.233 354.447C363.649 298.205 381.879 279.143 396.53 263.826C396.601 263.751 396.671 263.677 396.743 263.603C395.689 261.093 395.13 258.338 394.558 255.526C392.389 244.863 389.689 231.595 357.946 221.57C338.997 215.587 335.189 203.613 332.129 193.994C329.002 184.159 326.525 176.379 309.581 176.379H309.35C292.739 176.451 288.961 182.491 284.177 190.142C277.133 201.405 268.382 215.394 217.466 215.394C216.947 215.394 216.429 215.394 215.901 215.39C210.805 215.363 205.614 215.201 200.399 214.963C171.229 236.43 143.189 247.886 127.285 243.559C120.993 241.841 116.765 237.633 115.057 231.395C113.465 225.575 114.126 220.822 117.015 217.267C125.445 206.91 151.246 208.522 181.125 210.393C187.109 210.766 193.201 211.149 199.265 211.437C209.145 204.115 219.126 195.669 228.714 186.354C252.031 163.705 287.562 153.219 323.717 158.321C359.474 163.363 389.187 182.339 405.241 210.386C421.991 239.649 412.447 252.07 400.947 264.215C402.475 266.645 404.871 268.526 409.055 269.79C418.945 272.765 427.019 262.658 430.946 256.362C447.974 229.041 453.826 169.302 419.853 132.751C417.126 129.817 413.975 127.347 410.542 125.386C409.238 135.205 406.067 144.905 400.182 152.125C393.982 159.738 382.638 162.79 373.175 159.365C365.085 156.441 360.497 149.662 360.589 140.767C360.457 130.031 368.662 120.345 380.101 117.777C389.258 115.469 399.017 116.407 407.642 120.083C408.313 110.421 407.222 101.015 405.285 94.3846C395.282 60.1886 374.981 40.6873 343.218 34.7606C331.979 32.6633 320.487 34.0366 310.519 38.282C315.174 45.8633 319.918 56.066 317.607 66.0633C316.607 70.374 313.789 74.1273 309.673 76.634C305.21 79.3553 299.685 80.2526 294.903 79.0366C289.811 77.7966 286.159 74.4459 284.638 69.6046C282.629 63.2073 284.634 54.8726 289.517 49.3326C293.894 44.1793 299.353 39.962 305.474 36.8206C290.205 12.8406 261.907 1.5713 229.67 6.67664C217.794 8.5513 207.83 12.302 200.153 17.7193C202.47 19.718 204.466 22.0926 205.983 24.9486C209.619 31.8979 209.707 40.5953 206.21 47.1206C201.782 54.3513 196.449 55.2353 193.665 55.1033C189.314 54.9206 185.427 52.2473 183.273 47.9513C180.214 41.8593 181.281 34.2193 186.207 26.9926C188.461 23.6073 191.201 20.538 194.403 17.7966C189.371 14.6286 183.273 12.6739 177.541 11.0446C154.265 4.41795 91.4727 9.8553 69.8767 61.094C80.0247 58.7993 88.6033 59.7513 93.922 63.0953C99.282 66.4633 101.478 72.162 100.102 79.142C99.0047 84.7246 95.634 88.5846 90.6193 90.0113C83.782 91.942 74.786 88.9673 69.19 82.9366C64.7847 78.1899 63.094 72.2539 64.3713 66.3113C57.5647 68.6659 50.2087 72.478 42.854 77.99C28.5527 88.7033 1.93266 108.649 5.87 149.919C6.47933 156.313 9.54601 167.053 20.8113 181.574C38.0593 142.563 85.8353 113.961 98.0393 107.151C156.501 74.53 216.219 70.9526 257.783 97.5726C262.29 100.459 267.257 104.529 272.511 108.977C294.938 93.4833 313.545 88.6153 327.826 94.5433C339.203 99.5046 345.617 108.354 345.007 118.227C344.401 128.097 336.849 136.845 326.213 139.995C309.587 145.155 290.506 128.875 273.685 114.527C273.213 114.127 272.746 113.731 272.282 113.334C240.254 134.801 219.39 129.766 195.311 123.97C179.647 120.195 163.446 116.299 142.037 119.199C117.266 122.55 89.118 144.834 81.7993 166.89C79.4487 173.974 78.374 184.115 86.6113 192.189C89.1247 194.651 92.086 196.349 95.3313 197.426C98.446 189.823 102.643 182.797 107.623 177.003C119.757 163.735 134.454 157.799 146.99 161.11C153.783 163.183 155.779 167.229 156.266 170.258C157.195 176.014 153.359 183.214 146.939 187.763C137.213 195.011 114.762 205.575 97.1847 201.594C89.7953 221.902 92.2727 243.342 101.749 255.461C131.059 292.937 187.366 258.199 211.414 243.359L213.559 242.038C249.145 220.178 289.631 217.234 313.491 221.337C331.207 224.393 363.462 238.331 370.014 250.593C371.495 253.357 371.705 255.966 370.647 258.347C369.607 260.686 368.09 262.21 366.138 262.878C361.507 264.446 355.411 261.181 346.186 256.21C334.362 249.841 318.159 241.117 296.611 238.494C280.701 236.569 269.299 239.927 267.85 244.149C266.945 246.787 269.93 250.403 276.039 254.069C278.821 255.735 282.591 257.189 286.959 258.873C308.853 267.309 345.498 281.427 368.477 359.895C368.747 360.814 368.218 361.779 367.301 362.047C367.138 362.094 366.971 362.118 366.813 362.118Z" fill="#F7DA23"/>
<path d="M197.317 19.8806C194.071 22.5566 191.313 25.5833 189.083 28.93C184.879 35.0993 183.897 41.4593 186.373 46.3953C187.955 49.5473 190.737 51.5086 193.81 51.6366C197.402 51.7286 200.647 49.5673 203.202 45.3966C206.075 40.0259 205.979 32.4233 202.914 26.5646C201.507 23.9153 199.583 21.7273 197.317 19.8806ZM307.351 39.7553C301.507 42.71 296.303 46.7046 292.139 51.6033C287.999 56.3019 286.285 63.2646 287.949 68.5606C288.758 71.1353 290.767 74.4593 295.741 75.6726C299.663 76.6619 304.187 75.9126 307.87 73.6726C311.183 71.6539 313.439 68.6726 314.226 65.2806C316.293 56.3393 311.746 46.8393 307.351 39.7553ZM68.3113 65.0873C65.706 72.5379 69.322 77.9793 71.73 80.5753C76.494 85.7073 84.0433 88.2833 89.67 86.67C93.4207 85.606 95.854 82.7699 96.7007 78.4713C97.7913 72.9206 96.1953 68.618 92.0753 66.0326C87.126 62.9193 78.5167 62.3059 68.3113 65.0873ZM275.25 111.305C275.477 111.498 275.707 111.694 275.934 111.887C292.085 125.661 310.414 141.273 325.207 136.675C334.47 133.93 341.026 126.433 341.545 118.013C342.066 109.533 336.57 102.141 326.467 97.7353C313.551 92.3753 296.306 96.9353 275.25 111.305ZM390.333 119.995C387.171 119.995 384.001 120.371 380.903 121.154C371.17 123.335 363.946 131.766 364.058 140.765C363.983 148.133 367.738 153.71 374.358 156.102C382.462 159.03 392.193 156.438 397.491 149.935C403.214 142.913 406.186 133.347 407.307 123.722C401.991 121.286 396.174 119.995 390.333 119.995ZM98.4927 198.263C114.149 201.462 134.79 192.494 144.899 184.958C150.233 181.178 153.557 175.238 152.841 170.81C152.361 167.818 150.073 165.677 146.042 164.447C129.426 160.059 114.417 174.713 110.219 179.307C105.157 185.193 101.281 191.637 98.4927 198.263ZM149.707 212.494C135.379 212.494 124.11 214.045 119.706 219.459C117.53 222.129 117.107 225.738 118.405 230.481C119.79 235.539 123.083 238.815 128.199 240.211C142.307 244.054 167.891 233.743 194.782 214.682C190.134 214.431 185.489 214.141 180.909 213.855C169.903 213.167 159.139 212.494 149.707 212.494ZM21.838 188.293C17.7447 199.839 16.5993 212.202 20.13 225.077C24.514 241.075 34.306 250.942 46.326 251.466C54.4607 251.785 61.7767 247.577 64.158 241.143C66.858 233.855 62.7993 225.27 53.0247 217.589C39.2753 206.787 29.2033 196.983 21.838 188.293ZM309.581 172.91C329.066 172.91 332.159 182.641 335.435 192.945C338.542 202.715 341.758 212.819 358.99 218.263C392.681 228.905 395.73 243.891 397.955 254.834C398.399 257.013 398.806 259.009 399.395 260.805C410.247 249.197 417.319 238.47 402.231 212.107C386.714 184.999 357.922 166.646 323.231 161.757C288.145 156.814 253.687 166.934 231.133 188.841C222.497 197.23 213.61 204.894 204.781 211.67C208.527 211.809 212.251 211.901 215.921 211.921C216.439 211.925 216.958 211.925 217.469 211.925C266.465 211.925 274.646 198.839 281.237 188.302C286.159 180.429 290.814 172.989 309.337 172.91H309.581ZM366.813 362.118C366.061 362.118 365.369 361.627 365.149 360.871C342.653 284.046 307.01 270.314 285.711 262.109C281.195 260.37 277.293 258.866 274.257 257.043C264.319 251.081 263.503 246.127 264.57 243.023C266.878 236.285 280.23 233.005 297.031 235.051C319.23 237.749 335.761 246.655 347.833 253.157C355.646 257.362 361.815 260.673 365.017 259.594C365.663 259.371 366.623 258.857 367.477 256.938C368.086 255.566 367.917 254.025 366.955 252.226C361.057 241.19 330.029 227.709 312.901 224.758C289.629 220.747 250.13 223.641 215.375 244.991L213.234 246.31C190.541 260.319 130.25 297.538 99.018 257.595C87.1567 242.43 87.0927 220.066 94.0687 200.713C90.4433 199.473 87.0927 197.515 84.1847 194.669C76.65 187.286 74.6887 177.302 78.506 165.795C86.1913 142.649 115.657 119.267 141.569 115.763C163.653 112.765 180.902 116.933 196.121 120.598C219.197 126.151 239.217 130.973 269.53 110.999C264.645 106.873 260.034 103.133 255.914 100.494C215.453 74.574 157.066 78.1966 99.726 110.179C87.5793 116.959 39.3033 145.837 23.25 184.619C30.538 193.449 40.794 203.569 55.166 214.858C66.2073 223.535 70.67 233.554 67.414 242.349C64.51 250.179 55.698 255.359 46.174 254.933C32.574 254.337 21.5873 243.518 16.782 225.991C12.846 211.619 14.4073 197.901 19.3033 185.215C6.49668 169.19 3.08467 157.261 2.414 150.251C-1.706 107.039 25.9273 86.334 40.774 75.2113C49.3447 68.7913 57.8793 64.5726 65.686 62.2046C87.1367 6.66729 153.97 0.717942 178.489 7.70728C184.875 9.51928 191.693 11.7286 197.273 15.5166C205.502 9.4526 216.266 5.28196 229.127 3.24863C262.914 -2.08737 292.634 9.88196 308.598 35.27C308.611 35.29 308.622 35.306 308.635 35.3233C319.338 30.638 331.746 29.0833 343.855 31.3526C377.025 37.5393 398.21 57.838 408.611 93.4086C410.729 100.646 411.867 111.051 410.953 121.655C415.191 123.891 419.083 126.826 422.394 130.386C457.529 168.191 451.494 229.955 433.89 258.199C426.321 270.349 416.909 275.786 408.053 273.11C403.293 271.673 400.385 269.465 398.494 266.791C383.943 282.017 367.967 299.651 389.451 353.153C389.807 354.045 389.377 355.054 388.49 355.41C387.598 355.759 386.593 355.338 386.233 354.447C363.649 298.205 381.879 279.143 396.53 263.826C396.601 263.751 396.671 263.677 396.743 263.603C395.689 261.093 395.13 258.338 394.558 255.526C392.389 244.863 389.689 231.595 357.946 221.57C338.997 215.587 335.189 203.613 332.129 193.994C329.002 184.159 326.525 176.379 309.581 176.379H309.35C292.739 176.451 288.961 182.491 284.177 190.142C277.133 201.405 268.382 215.394 217.466 215.394C216.947 215.394 216.429 215.394 215.901 215.39C210.805 215.363 205.614 215.201 200.399 214.963C171.229 236.43 143.189 247.886 127.285 243.559C120.993 241.841 116.765 237.633 115.057 231.395C113.465 225.575 114.126 220.822 117.015 217.267C125.445 206.91 151.246 208.522 181.125 210.393C187.109 210.766 193.201 211.149 199.265 211.437C209.145 204.115 219.126 195.669 228.714 186.354C252.031 163.705 287.562 153.219 323.717 158.321C359.474 163.363 389.187 182.339 405.241 210.386C421.991 239.649 412.447 252.07 400.947 264.215C402.475 266.645 404.871 268.526 409.055 269.79C418.945 272.765 427.019 262.658 430.946 256.362C447.974 229.041 453.826 169.302 419.853 132.751C417.126 129.817 413.975 127.347 410.542 125.386C409.238 135.205 406.067 144.905 400.182 152.125C393.982 159.738 382.638 162.79 373.175 159.365C365.085 156.441 360.497 149.662 360.589 140.767C360.457 130.031 368.662 120.345 380.101 117.777C389.258 115.469 399.017 116.407 407.642 120.083C408.313 110.421 407.222 101.015 405.285 94.3846C395.282 60.1886 374.981 40.6873 343.218 34.7606C331.979 32.6633 320.487 34.0366 310.519 38.282C315.174 45.8633 319.918 56.066 317.607 66.0633C316.607 70.374 313.789 74.1273 309.673 76.634C305.21 79.3553 299.685 80.2526 294.903 79.0366C289.811 77.7966 286.159 74.4459 284.638 69.6046C282.629 63.2073 284.634 54.8726 289.517 49.3326C293.894 44.1793 299.353 39.962 305.474 36.8206C290.205 12.8406 261.907 1.5713 229.67 6.67664C217.794 8.5513 207.83 12.302 200.153 17.7193C202.47 19.718 204.466 22.0926 205.983 24.9486C209.619 31.8979 209.707 40.5953 206.21 47.1206C201.782 54.3513 196.449 55.2353 193.665 55.1033C189.314 54.9206 185.427 52.2473 183.273 47.9513C180.214 41.8593 181.281 34.2193 186.207 26.9926C188.461 23.6073 191.201 20.538 194.403 17.7966C189.371 14.6286 183.273 12.6739 177.541 11.0446C154.265 4.41795 91.4727 9.8553 69.8767 61.094C80.0247 58.7993 88.6033 59.7513 93.922 63.0953C99.282 66.4633 101.478 72.162 100.102 79.142C99.0047 84.7246 95.634 88.5846 90.6193 90.0113C83.782 91.942 74.786 88.9673 69.19 82.9366C64.7847 78.1899 63.094 72.2539 64.3713 66.3113C57.5647 68.6659 50.2087 72.478 42.854 77.99C28.5527 88.7033 1.93266 108.649 5.87 149.919C6.47933 156.313 9.54601 167.053 20.8113 181.574C38.0593 142.563 85.8353 113.961 98.0393 107.151C156.501 74.53 216.219 70.9526 257.783 97.5726C262.29 100.459 267.257 104.529 272.511 108.977C294.938 93.4833 313.545 88.6153 327.826 94.5433C339.203 99.5046 345.617 108.354 345.007 118.227C344.401 128.097 336.849 136.845 326.213 139.995C309.587 145.155 290.506 128.875 273.685 114.527C273.213 114.127 272.746 113.731 272.282 113.334C240.254 134.801 219.39 129.766 195.311 123.97C179.647 120.195 163.446 116.299 142.037 119.199C117.266 122.55 89.118 144.834 81.7993 166.89C79.4487 173.974 78.374 184.115 86.6113 192.189C89.1247 194.651 92.086 196.349 95.3313 197.426C98.446 189.823 102.643 182.797 107.623 177.003C119.757 163.735 134.454 157.799 146.99 161.11C153.783 163.183 155.779 167.229 156.266 170.258C157.195 176.014 153.359 183.214 146.939 187.763C137.213 195.011 114.762 205.575 97.1847 201.594C89.7953 221.902 92.2727 243.342 101.749 255.461C131.059 292.937 187.366 258.199 211.414 243.359L213.559 242.038C249.145 220.178 289.631 217.234 313.491 221.337C331.207 224.393 363.462 238.331 370.014 250.593C371.495 253.357 371.705 255.966 370.647 258.347C369.607 260.686 368.09 262.21 366.138 262.878C361.507 264.446 355.411 261.181 346.186 256.21C334.362 249.841 318.159 241.117 296.611 238.494C280.701 236.569 269.299 239.927 267.85 244.149C266.945 246.787 269.93 250.403 276.039 254.069C278.821 255.735 282.591 257.189 286.959 258.873C308.853 267.309 345.498 281.427 368.477 359.895C368.747 360.814 368.218 361.779 367.301 362.047C367.138 362.094 366.971 362.118 366.813 362.118Z" stroke="#F7DA23" stroke-width="3" mask="url(#path-1-outside-1_5_29)"/>
</svg>
