<?xml version="1.0" encoding="iso-8859-1"?>
<!-- Generator: Adobe Illustrator 23.1.1, SVG Export Plug-In . SVG Version: 6.00 Build 0)  -->
<svg version="1.1" id="Livello_1" xmlns="http://www.w3.org/2000/svg" xmlns:xlink="http://www.w3.org/1999/xlink" x="0px" y="0px"
	 viewBox="0 0 225.908 60.771" style="enable-background:new 0 0 225.908 60.771;" xml:space="preserve">
<g>
	<g>
		<path style="fill:#222222;" d="M178.053,23.869c-1.339,0.823-2.386,0.973-3.68-0.003c-2.998-2.261-6.329-2.644-9.876-1.508
			c-0.941,0.301-1.847,0.434-2.858,0.014c-3.377-1.402-4.737-0.559-4.908,3.16c-0.138,3.013-0.028,6.038-0.028,9.058
			c-0.006,0-0.012,0-0.018,0c0,2.718-0.022,5.436,0.006,8.153c0.032,3.199,0.992,4.679,3.006,4.74
			c2.103,0.064,3.083-1.441,3.112-4.839c0.027-3.246-0.089-6.498,0.07-9.737c0.178-3.609,3.077-5.771,6.335-4.94
			c2.51,0.64,3.827,2.553,3.91,5.902c0.088,3.545,0.012,7.096,0.141,10.639c0.06,1.639,0.815,2.975,2.739,2.973
			c2.023-0.002,3.06-1.141,3.097-3.124c0.051-2.717,0.021-5.435,0.053-8.152c0.019-1.654-0.174-3.327,0.408-4.937
			c0.793-2.194,2.529-3.472,4.787-3.511c2.267-0.039,3.906,1.172,4.758,3.471c0.43,1.16,0.48,2.355,0.483,3.568
			c0.006,3.17-0.017,6.342,0.062,9.511c0.047,1.896,0.901,3.224,3.026,3.172c2.17-0.053,2.822-1.565,2.851-3.375
			c0.056-3.547,0.026-7.096-0.043-10.643C195.291,23.612,186.431,18.719,178.053,23.869z"/>
		<path style="fill:#222222;" d="M108.26,22.728c-0.787,0.317-1.585,1.135-2.366-0.005c-0.949-1.384-2.255-1.794-3.754-1.14
			c-1.516,0.661-1.858,2.053-1.855,3.58c0.01,4.75,0.004,9.5,0.002,14.25c-0.001,1.96-0.037,3.921,0.007,5.881
			c0.075,3.388-0.308,6.796,0.232,10.162c0.384,2.394,2.304,3.559,4.046,2.505c1.305-0.789,1.863-2.123,1.858-3.667
			c-0.007-2.186,0.086-4.378-0.028-6.558c-0.092-1.752,0.484-1.865,1.929-1.228c4.577,2.018,8.938,1.218,12.841-1.616
			c5.068-3.679,6.559-11.136,3.536-16.453C121.419,22.651,114.455,20.235,108.26,22.728z M113.058,41.513
			c-3.675-0.051-6.672-3.302-6.607-7.168c0.061-3.65,3.179-6.618,6.925-6.594c3.68,0.023,6.788,3.272,6.753,7.057
			C120.095,38.538,116.901,41.567,113.058,41.513z"/>
		<path style="fill:#222222;" d="M223.837,34.318c-0.001-3.317-0.027-6.635,0.012-9.952c0.017-1.44-0.891-2.187-1.95-2.804
			c-1.063-0.619-2.118-0.355-2.86,0.54c-1.01,1.218-1.985,1.114-3.364,0.564c-5.628-2.247-11.847-0.385-15.326,4.43
			c-3.395,4.7-3.255,11.083,0.343,15.578c3.702,4.624,10.044,6.192,15.539,3.729c1.031-0.462,1.766-0.577,2.646,0.197
			c0.861,0.758,1.854,1.433,3.066,0.736c1.248-0.717,1.974-1.703,1.925-3.294C223.768,40.804,223.838,37.56,223.837,34.318z
			 M210.827,41.532c-3.712-0.005-6.894-3.243-6.853-6.973c0.04-3.634,3.158-6.765,6.791-6.819c3.706-0.055,6.934,3.135,6.955,6.874
			C217.74,38.368,214.582,41.537,210.827,41.532z"/>
		<path style="fill:#222222;" d="M82.594,21.873c-6.656,1.154-11.356,7.189-10.765,13.824c0.601,6.748,6.115,11.882,12.869,11.9
			c2.957,0.008,5.684-0.823,7.918-2.843c1.14-1.031,1.358-2.337,0.553-3.689c-0.768-1.289-1.958-1.58-3.337-1.165
			c-0.575,0.173-1.124,0.436-1.676,0.679c-3.852,1.695-6.479,0.994-9.159-2.575c0.941-0.518,1.784-0.289,2.589-0.3
			c4.228-0.06,8.461,0.017,12.685-0.156c2.519-0.103,3.317-1.134,3.276-3.634c-0.015-0.895-0.126-1.813-0.361-2.675
			C95.42,24.789,89.094,20.746,82.594,21.873z M79.15,31.195c0.979-2.098,2.586-3.171,4.668-3.429
			c2.821-0.348,4.876,1.039,6.84,3.429C86.647,31.195,83.01,31.195,79.15,31.195z"/>
		<path style="fill:#222222;" d="M27.641,34.584c0-3.392,0.01-6.785-0.005-10.177c-0.006-1.333-0.631-2.324-1.861-2.85
			c-1.03-0.44-2.185-0.575-2.908,0.411c-1.048,1.428-2.137,1.186-3.553,0.654c-5.698-2.142-11.858-0.221-15.267,4.647
			c-3.265,4.662-2.982,11.154,0.678,15.587c3.812,4.618,9.937,5.994,15.57,3.448c0.74-0.334,1.352-0.673,2.005,0.088
			c0.998,1.163,2.199,1.543,3.641,0.863c1.563-0.737,1.741-2.131,1.737-3.625c-0.01-3.016-0.003-6.031-0.003-9.047
			C27.664,34.584,27.653,34.584,27.641,34.584z M14.605,41.533c-3.745-0.054-6.902-3.307-6.815-7.021
			c0.085-3.638,3.255-6.769,6.856-6.771c3.726-0.002,6.943,3.225,6.914,6.935C21.531,38.455,18.354,41.587,14.605,41.533z"/>
		<path style="fill:#222222;" d="M39.314,22.374c-0.967,0.278-1.813,0.439-2.831,0.003c-2.949-1.261-4.505-0.257-4.582,2.938
			c-0.075,3.094-0.016,6.191-0.016,9.286c0,3.171-0.027,6.343,0.011,9.513c0.022,1.855,0.698,3.288,2.827,3.4
			c1.881,0.098,2.915-1.088,3.045-3.428c0.046-0.828,0.005-1.661,0.016-2.491c0.042-3.018-0.123-6.058,0.187-9.049
			c0.44-4.244,4.828-6.222,8.019-3.797c1.588,1.207,2.087,2.908,2.1,4.795c0.024,3.397-0.044,6.796,0.041,10.192
			c0.066,2.638,1.177,3.86,3.185,3.796c1.935-0.062,2.882-1.235,2.914-3.803c0.043-3.473,0.077-6.948-0.002-10.419
			C54.036,24.972,47.337,20.072,39.314,22.374z"/>
		<path style="fill:#222222;" d="M68.757,21.111c-2.638-0.113-3.112-0.74-3.082-3.36c0.031-2.69-0.895-3.976-2.881-4.003
			c-1.943-0.027-3.028,1.34-3.102,3.912c-0.007,0.226-0.024,0.458,0.013,0.678c0.257,1.542-0.085,2.631-1.845,3.028
			c-1.372,0.309-1.91,1.45-1.881,2.761c0.026,1.206,0.52,2.341,1.799,2.591c1.934,0.378,2.038,1.685,2.024,3.213
			c-0.044,4.68-0.126,9.361-0.047,14.039c0.042,2.507,1.196,3.626,3.171,3.524c1.854-0.095,2.749-1.233,2.762-3.663
			c0.026-4.601,0.058-9.203-0.013-13.803c-0.031-2.015,0.502-3.15,2.809-3.051c2.084,0.089,3.207-1.05,3.2-2.932
			C71.676,22.141,70.766,21.197,68.757,21.111z"/>
		<path style="fill:#222222;" d="M139.077,21.353c-1.028,0.127-2.038,0.522-3.014,0.905c-0.824,0.323-1.473,0.395-2.307-0.138
			c-2.69-1.719-4.919-0.493-4.973,2.705c-0.053,3.161-0.012,6.324-0.012,9.486c0.006,0,0.011,0,0.017,0
			c0,3.388-0.07,6.778,0.029,10.163c0.051,1.757,0.9,3.105,2.913,3.021c1.861-0.077,2.906-1.132,2.931-3.041
			c0.028-2.105,0.113-4.216,0.003-6.315c-0.266-5.048,0.316-9.541,6.053-11.473c1.43-0.482,1.597-1.903,1.199-3.262
			C141.509,22.013,140.554,21.17,139.077,21.353z"/>
		<path style="fill:#E12B2A;" d="M158.272,7.703c1.186-0.897,2.254-1.912,1.504-3.609c-0.75-1.696-2.338-1.275-3.574-1.088
			c-4.626,0.7-9.228,1.558-13.831,2.401c-1.485,0.272-2.615,1.026-2.279,2.763c0.327,1.691,1.532,2.026,3.098,1.777
			c1.536-0.244,3.04-0.92,5.181-0.376c-1.637,1.304-2.915,2.334-4.206,3.345c-1.192,0.934-2.331,1.943-1.203,3.567
			c1.205,1.735,2.559,0.749,3.71-0.095C150.569,13.533,154.42,10.617,158.272,7.703z"/>
		<path style="fill:#222222;" d="M152.367,25.008c-0.021-2.423-0.9-3.551-2.758-3.656c-1.991-0.112-3.09,0.97-3.119,3.507
			c-0.073,6.399-0.05,12.799-0.002,19.198c0.017,2.318,1.131,3.512,2.972,3.463c1.879-0.05,2.878-1.214,2.905-3.532
			c0.037-3.163,0.009-6.327,0.009-9.49C152.374,31.334,152.394,28.171,152.367,25.008z"/>
	</g>
</g>
</svg>
